<svg width="24" height="21" viewBox="0 0 24 21" fill="none" xmlns="http://www.w3.org/2000/svg">
<path id="Vector" d="M21.7778 0H2.22224C1.63287 0 1.06764 0.221249 0.650893 0.615076C0.234146 1.0089 1.93772e-05 1.54305 1.93772e-05 2.1V18.9C-0.00175558 19.2999 0.118445 19.6919 0.346237 20.0289C0.574028 20.3659 0.899764 20.6338 1.28446 20.8005C1.57977 20.9312 1.90173 20.9992 2.2278 21C2.7496 20.9987 3.25414 20.8232 3.65224 20.5044L3.67335 20.4876L7.11112 17.64H21.7778C22.3671 17.64 22.9324 17.4188 23.3491 17.0249C23.7659 16.6311 24 16.097 24 15.54V2.1C24 1.54305 23.7659 1.0089 23.3491 0.615076C22.9324 0.221249 22.3671 0 21.7778 0ZM21.3333 15.12H6.94446C6.42131 15.12 5.91493 15.2944 5.51446 15.6124L5.49335 15.6293L2.66668 17.9697V2.52H21.3333V15.12Z" fill="url(#paint0_linear_357_2471)"/>
<defs>
<linearGradient id="paint0_linear_357_2471" x1="-8.9407e-08" y1="10.5" x2="24" y2="10.5" gradientUnits="userSpaceOnUse">
<stop stop-color="#9538ED"/>
<stop offset="1" stop-color="#65A2FC"/>
</linearGradient>
</defs>
</svg>
